<svg width="236" height="243" viewBox="0 0 236 243" fill="none" xmlns="http://www.w3.org/2000/svg">
<g id="warning 1">
<g id="freepik--background-simple--inject-13">
<path id="Vector" d="M75.2649 218.724C77.4497 221.092 79.7547 223.339 82.1703 225.455H186.312C197.796 214.214 208.666 198.079 218.191 175.776C218.191 175.776 235.061 131.798 231.133 93.2488C227.206 54.6993 202.615 24.2368 167.782 17.7487C132.948 11.2606 101.985 46.8407 63.1062 59.1754C24.2275 71.51 -4.24821 104.568 5.98475 148.91C16.2177 193.253 44.7926 185.623 75.2649 218.724Z" fill="#263238"/>
</g>
<g id="freepik--Plants--inject-13">
<path id="Vector_2" d="M173.333 79.3881C174.848 80.0685 178.553 79.981 178.553 79.981C178.553 79.981 177.755 77.483 177.689 77.3323C176.873 75.5827 174.305 72.691 172.209 72.9583C171.864 73.0169 171.534 73.1497 171.241 73.3481C170.949 73.5466 170.7 73.8062 170.511 74.1101C170.322 74.414 170.198 74.7554 170.146 75.1121C170.093 75.4688 170.115 75.8328 170.208 76.1805C170.553 77.6968 172.039 78.8049 173.333 79.3881Z" fill="#C2C2C2"/>
<path id="Vector_3" d="M210.809 80.224C210.837 80.2483 211.479 77.692 211.503 77.5267C211.763 75.5827 211.168 71.7288 209.266 70.7859C208.946 70.6379 208.599 70.5609 208.249 70.5599C207.898 70.5589 207.551 70.634 207.23 70.7803C206.91 70.9265 206.623 71.1407 206.388 71.4087C206.153 71.6768 205.976 71.9929 205.867 72.3363C205.358 73.7943 206.004 75.5439 206.769 76.7637C207.68 78.1926 210.804 80.224 210.809 80.224Z" fill="#C2C2C2"/>
<path id="Vector_4" d="M221.868 66.4022C219.768 66.1689 217.276 69.1287 216.506 70.9026C216.44 71.0581 215.671 73.5756 215.709 73.5756H215.756C215.359 74.0616 214.939 74.5476 214.486 75.1016C213.67 76.1368 212.749 77.3178 211.834 78.6737C210.831 80.1217 209.912 81.6293 209.082 83.1886C208.139 84.9302 207.349 86.7551 206.722 88.6416C206.719 88.6641 206.719 88.687 206.722 88.7096C206.722 88.0729 206.722 86.2796 206.689 86.1532C206.443 84.2092 204.876 80.6566 202.8 80.2629C202.452 80.2064 202.097 80.2262 201.758 80.321C201.419 80.4158 201.103 80.5834 200.831 80.8129C200.559 81.0424 200.337 81.3286 200.18 81.6526C200.023 81.9766 199.935 82.3312 199.92 82.6929C199.798 84.2238 200.864 85.7547 201.926 86.7219C203.111 87.8105 206.396 88.8651 206.646 88.9477C206.057 90.8824 205.592 92.855 205.254 94.8526C205.056 96.0142 204.886 97.1903 204.735 98.3761C204.735 97.827 204.735 97.3312 204.706 97.2632C204.461 95.3192 202.894 91.7665 200.822 91.3729C200.474 91.3164 200.119 91.3362 199.779 91.4309C199.44 91.5257 199.124 91.6933 198.851 91.9227C198.579 92.1522 198.357 92.4383 198.199 92.7623C198.042 93.0863 197.953 93.4409 197.938 93.8029C197.815 95.3338 198.882 96.8647 199.944 97.8318C201.006 98.799 203.795 99.7758 204.536 100.009L204.367 101.375C204.116 103.552 203.871 105.749 203.569 107.863C203.465 108.611 203.333 109.345 203.205 110.079C203.205 109.593 203.205 109.18 203.177 109.107C202.936 107.163 201.369 103.61 199.293 103.217C198.945 103.16 198.59 103.18 198.251 103.275C197.912 103.37 197.596 103.537 197.324 103.767C197.052 103.996 196.83 104.282 196.673 104.606C196.516 104.93 196.428 105.285 196.413 105.647C196.291 107.173 197.357 108.704 198.419 109.671C199.481 110.638 201.997 111.513 202.875 111.804C202.719 112.553 202.568 113.306 202.403 114.025C202.271 114.511 202.172 114.997 202.011 115.483C201.851 115.969 201.709 116.455 201.563 116.912C201.247 117.811 200.926 118.74 200.591 119.605C200.369 120.212 200.142 120.781 199.916 121.359C200.029 120.615 200.222 119.153 200.227 119.026C200.204 117.318 199.756 115.645 198.924 114.166C198.93 113.976 198.919 113.786 198.891 113.598C198.848 113.239 198.731 112.895 198.55 112.586C198.368 112.277 198.125 112.011 197.837 111.805C197.549 111.599 197.222 111.458 196.878 111.391C196.533 111.324 196.179 111.332 195.838 111.416C193.798 111.974 192.5 115.663 192.406 117.602C192.406 117.714 192.472 118.963 192.534 119.75C192.43 119.294 192.335 118.846 192.222 118.38C192.01 117.452 191.75 116.528 191.514 115.537L191.094 114.079C190.962 113.593 190.764 113.107 190.598 112.621C190.197 111.488 189.735 110.356 189.244 109.219C190.032 109.024 192.826 108.291 193.964 107.401C195.101 106.512 196.262 105.078 196.253 103.542C196.263 103.182 196.198 102.823 196.065 102.489C195.931 102.156 195.73 101.855 195.476 101.606C195.222 101.358 194.92 101.167 194.589 101.047C194.259 100.927 193.907 100.879 193.558 100.908C191.457 101.141 189.635 104.587 189.253 106.487C189.253 106.604 189.107 107.999 189.055 108.767C188.753 108.091 188.455 107.416 188.111 106.74C187.167 104.796 186.162 102.852 185.166 100.908C184.859 100.315 184.561 99.7224 184.259 99.1246C184.543 99.0614 187.884 98.2644 189.14 97.2681C190.254 96.3884 191.438 94.945 191.429 93.4092C191.439 93.0484 191.375 92.6896 191.241 92.356C191.107 92.0225 190.906 91.7217 190.652 91.4732C190.398 91.2247 190.096 91.0341 189.765 90.9138C189.435 90.7936 189.083 90.7463 188.734 90.7751C186.634 91.0084 184.812 94.4541 184.429 96.3544C184.401 96.4953 184.226 98.5074 184.207 99.0177C183.547 97.7103 182.9 96.3981 182.319 95.0762C181.518 93.2985 180.831 91.4689 180.262 89.599C180.394 89.565 183.882 88.7485 185.17 87.7327C186.284 86.8531 187.469 85.4097 187.46 83.8739C187.469 83.5127 187.405 83.1534 187.271 82.8195C187.137 82.4855 186.936 82.1845 186.681 81.9359C186.426 81.6874 186.123 81.4969 185.792 81.377C185.461 81.257 185.109 81.2103 184.76 81.2398C182.664 81.4731 180.842 84.9188 180.46 86.8191C180.436 86.9406 180.299 88.4715 180.252 89.2005H180.134C179.608 87.3032 179.247 85.3611 179.058 83.3976C178.94 82.3187 178.888 81.2787 178.855 80.2678C179.52 80.1852 182.555 79.7818 183.811 78.9847C185.066 78.1877 186.35 76.9338 186.501 75.4078C186.549 75.0504 186.522 74.6868 186.424 74.3407C186.326 73.9945 186.158 73.6735 185.931 73.3985C185.705 73.1235 185.424 72.9006 185.109 72.7444C184.793 72.5882 184.449 72.5021 184.099 72.4918C181.989 72.4918 179.813 75.7042 179.233 77.551C179.2 77.6531 178.987 78.7077 178.846 79.495C178.846 79.0382 178.822 78.5668 178.822 78.1294C178.822 76.4867 178.926 74.9801 179.03 73.6484C179.091 72.8903 179.162 72.1905 179.237 71.5684C179.846 71.1358 182.286 69.3619 183.037 68.0935C183.787 66.825 184.373 65.0706 183.825 63.6417C183.707 63.3013 183.522 62.9902 183.28 62.7285C183.038 62.4669 182.745 62.2606 182.42 62.1231C182.096 61.9856 181.747 61.92 181.396 61.9304C181.045 61.9408 180.701 62.0271 180.384 62.1837C178.496 63.1557 178.024 67.0437 178.326 68.9877C178.355 69.153 179.063 71.6899 179.096 71.6704L179.129 71.6413C179.048 72.2585 178.968 72.9146 178.893 73.6339C178.765 74.9655 178.628 76.4721 178.591 78.1245C178.534 79.9076 178.576 81.6925 178.718 83.4705C178.86 85.456 179.176 87.4242 179.662 89.3511C179.662 89.3511 179.662 89.3949 179.662 89.4192C179.332 88.8797 178.355 87.412 178.246 87.3051C177.014 85.8471 173.795 83.7475 171.85 84.598C171.531 84.7479 171.246 84.9654 171.014 85.2364C170.782 85.5073 170.608 85.8255 170.503 86.1704C170.399 86.5152 170.366 86.8789 170.407 87.2377C170.448 87.5965 170.562 87.9424 170.741 88.2528C171.459 89.599 173.182 90.2599 174.574 90.4738C176.146 90.7071 179.45 89.7205 179.714 89.6379C180.256 91.5875 180.927 93.497 181.72 95.3532C182.192 96.437 182.664 97.5159 183.169 98.59C182.867 98.1331 182.593 97.7298 182.551 97.6763C181.319 96.2183 178.095 94.1188 176.155 94.9693C175.836 95.1192 175.551 95.3367 175.319 95.6076C175.087 95.8785 174.913 96.1968 174.808 96.5416C174.703 96.8864 174.67 97.2501 174.711 97.6089C174.752 97.9677 174.866 98.3136 175.046 98.624C175.763 99.9702 177.481 100.636 178.874 100.845C180.266 101.054 183.122 100.272 183.872 100.053C184.071 100.466 184.264 100.874 184.462 101.282C185.406 103.226 186.383 105.204 187.294 107.148C187.606 107.834 187.889 108.524 188.177 109.209C187.908 108.806 187.677 108.465 187.639 108.422C186.407 106.964 183.183 104.864 181.243 105.715C180.924 105.864 180.639 106.081 180.407 106.352C180.175 106.622 180.001 106.94 179.896 107.284C179.792 107.629 179.759 107.992 179.8 108.351C179.841 108.709 179.955 109.055 180.134 109.365C180.852 110.711 182.57 111.377 183.962 111.586C185.354 111.795 187.936 111.1 188.828 110.832C189.097 111.547 189.376 112.261 189.607 112.961C189.758 113.447 189.933 113.904 190.056 114.395C190.178 114.886 190.315 115.367 190.447 115.853C190.664 116.781 190.891 117.738 191.08 118.647C191.217 119.284 191.335 119.886 191.457 120.499C191.151 119.809 190.513 118.477 190.466 118.375C189.461 116.732 186.586 114.161 184.538 114.701C184.201 114.799 183.888 114.97 183.619 115.201C183.35 115.433 183.132 115.72 182.978 116.044C182.824 116.368 182.739 116.722 182.727 117.083C182.715 117.444 182.777 117.803 182.909 118.137C183.419 119.595 185.019 120.504 186.364 120.931C187.851 121.417 191.132 120.97 191.556 120.931C191.75 121.942 191.934 122.929 192.09 123.847C192.364 125.432 192.562 126.89 192.76 128.187H194.124C193.907 126.827 193.652 125.271 193.322 123.609C193.124 122.584 192.897 121.495 192.652 120.372C193.637 119.964 194.6 119.498 195.535 118.978C196.616 120.183 199.387 121.592 199.746 121.772C199.368 122.744 198.99 123.648 198.622 124.513C198.056 125.855 197.513 127.084 197.008 128.187H198.467C198.887 127.215 199.326 126.156 199.774 125.014C200.161 124.042 200.558 123.007 200.954 121.933C201.35 122.02 204.598 122.7 206.113 122.346C207.486 122.025 209.148 121.228 209.762 119.828C209.918 119.505 210.006 119.151 210.02 118.79C210.034 118.43 209.974 118.07 209.844 117.734C209.714 117.399 209.517 117.096 209.265 116.844C209.013 116.593 208.713 116.399 208.383 116.276C206.382 115.581 203.328 117.923 202.21 119.483C202.143 119.575 201.535 120.659 201.162 121.349C201.322 120.907 201.483 120.484 201.634 120.027C201.955 119.133 202.247 118.229 202.578 117.257C202.715 116.771 202.856 116.285 202.993 115.799C203.13 115.313 203.243 114.798 203.371 114.293C203.644 113.117 203.843 111.911 204.06 110.691C204.82 110.978 207.543 111.955 208.954 111.853C210.366 111.751 212.122 111.216 212.933 109.909C213.135 109.613 213.275 109.277 213.342 108.922C213.409 108.567 213.403 108.202 213.323 107.849C213.244 107.497 213.094 107.166 212.882 106.878C212.67 106.589 212.401 106.351 212.093 106.176C210.205 105.204 206.854 107.017 205.518 108.388C205.438 108.475 204.574 109.569 204.131 110.176C204.239 109.442 204.357 108.718 204.447 107.965C204.706 105.807 204.919 103.62 205.112 101.438C205.174 100.767 205.244 100.101 205.311 99.4356C205.584 99.5377 208.794 100.772 210.375 100.655C211.791 100.553 213.542 100.024 214.354 98.7115C214.556 98.4161 214.695 98.0802 214.762 97.7257C214.83 97.3711 214.823 97.006 214.744 96.6541C214.665 96.3022 214.514 95.9716 214.302 95.6838C214.09 95.3959 213.822 95.1574 213.514 94.9839C211.626 93.9876 208.275 95.8246 206.939 97.1952C206.84 97.2972 205.617 98.8719 205.325 99.2898C205.476 97.8318 205.636 96.3738 205.858 94.9158C206.141 92.9776 206.547 91.0603 207.071 89.1762C207.199 89.2248 210.545 90.5272 212.164 90.4057C213.58 90.3085 215.331 89.7739 216.143 88.4909C216.345 88.1951 216.484 87.8588 216.551 87.5039C216.619 87.149 216.612 86.7835 216.533 86.4313C216.454 86.0791 216.303 85.748 216.091 85.4597C215.879 85.1715 215.611 84.9325 215.303 84.7584C213.415 83.7864 210.064 85.5992 208.728 86.9697C208.643 87.0572 207.708 88.2576 207.279 88.8408L207.17 88.7825C207.751 86.9012 208.491 85.0765 209.384 83.3296C209.856 82.3576 210.375 81.4682 210.894 80.608C211.494 80.9142 214.246 82.2895 215.713 82.3527C217.181 82.4159 218.928 82.0806 219.872 80.8947C220.104 80.6239 220.277 80.3058 220.382 79.9612C220.486 79.6166 220.519 79.2532 220.478 78.8947C220.437 78.5362 220.323 78.1906 220.144 77.8803C219.965 77.5701 219.724 77.3023 219.438 77.0942C217.677 75.8938 214.142 77.3372 212.664 78.5522C212.584 78.6154 211.843 79.3784 211.31 79.9422C211.55 79.5582 211.782 79.1548 212.022 78.7903C212.905 77.4198 213.797 76.2243 214.595 75.1696C215.067 74.5719 215.477 74.0421 215.883 73.5513C216.624 73.5513 219.607 73.4443 220.915 72.8174C222.222 72.1905 223.648 71.0484 223.955 69.5466C224.036 69.1978 224.045 68.8354 223.982 68.4827C223.918 68.13 223.784 67.7948 223.588 67.4986C223.391 67.2025 223.137 66.952 222.841 66.7631C222.545 66.5743 222.213 66.4514 221.868 66.4022Z" fill="#C2C2C2"/>
<path id="Vector_5" d="M10.9787 114.643C12.4938 115.323 16.199 115.235 16.199 115.235C16.199 115.235 15.4013 112.742 15.3352 112.587C14.5187 110.837 11.951 107.945 9.8553 108.237C9.50959 108.296 9.17973 108.428 8.88714 108.627C8.59455 108.825 8.3458 109.085 8.15704 109.389C7.96828 109.693 7.84376 110.034 7.79155 110.391C7.73934 110.748 7.76063 111.112 7.85402 111.459C8.19858 112.951 9.68538 114.059 10.9787 114.643Z" fill="#C2C2C2"/>
<path id="Vector_6" d="M48.4556 115.483C48.4839 115.483 49.1258 112.946 49.1494 112.781C49.409 110.837 48.8143 106.988 46.9122 106.04C46.5923 105.892 46.2458 105.815 45.8952 105.814C45.5445 105.813 45.1976 105.888 44.877 106.035C44.5564 106.181 44.2693 106.395 44.0344 106.663C43.7995 106.931 43.6221 107.247 43.5138 107.591C43.004 109.049 43.6506 110.803 44.4153 112.018C45.3121 113.447 48.4509 115.478 48.4556 115.483Z" fill="#C2C2C2"/>
<path id="Vector_7" d="M59.5145 101.657C57.4141 101.423 54.9219 104.383 54.1526 106.157C54.0865 106.313 53.3171 108.83 53.3549 108.83H53.4021C53.0056 109.292 52.5855 109.802 52.1324 110.356C51.3159 111.396 50.3955 112.577 49.4798 113.928C48.4788 115.377 47.5601 116.885 46.728 118.443C45.7851 120.185 44.9953 122.01 44.368 123.896C44.3653 123.919 44.3653 123.941 44.368 123.964C44.368 123.327 44.368 121.534 44.335 121.408C44.0895 119.464 42.5225 115.911 40.4457 115.517C40.0985 115.462 39.7438 115.482 39.4048 115.577C39.0657 115.672 38.75 115.84 38.4782 116.069C38.2065 116.299 37.9848 116.584 37.8277 116.908C37.6706 117.232 37.5816 117.586 37.5665 117.947C37.4438 119.473 38.5105 121.004 39.5725 121.971C40.7572 123.06 44.0423 124.115 44.2925 124.197C43.7034 126.132 43.2383 128.105 42.9001 130.102C42.7019 131.264 42.5319 132.445 42.3809 133.626C42.3809 133.077 42.3809 132.581 42.3526 132.513C42.1071 130.569 40.5401 127.016 38.468 126.622C38.1206 126.567 37.7656 126.587 37.4263 126.682C37.0871 126.777 36.771 126.945 36.4989 127.174C36.2268 127.403 36.0047 127.689 35.847 128.013C35.6894 128.337 35.5998 128.691 35.5841 129.052C35.4614 130.579 36.5281 132.109 37.5901 133.077C38.6521 134.044 41.4416 135.021 42.1827 135.259L42.0127 136.619C41.7626 138.802 41.5407 140.993 41.2151 143.108C41.1112 143.856 40.9791 144.59 40.8516 145.329C40.8516 144.843 40.8516 144.425 40.8233 144.357C40.5826 142.413 39.0155 138.86 36.9387 138.466C36.5915 138.411 36.2368 138.431 35.8978 138.526C35.5588 138.621 35.243 138.789 34.9713 139.018C34.6995 139.248 34.4778 139.533 34.3207 139.857C34.1636 140.181 34.0746 140.535 34.0595 140.896C33.9368 142.422 35.0035 143.953 36.0655 144.92C37.1275 145.888 39.6433 146.762 40.5212 147.054C40.3655 147.807 40.2144 148.556 40.0492 149.275C39.9171 149.761 39.8179 150.247 39.6575 150.733C39.497 151.219 39.3554 151.705 39.2091 152.162C38.8928 153.061 38.5719 153.989 38.2367 154.854C38.0149 155.462 37.7647 156.035 37.5618 156.609C37.6751 155.865 37.8686 154.402 37.8733 154.276C37.8509 152.568 37.4023 150.894 36.5706 149.416C36.5762 149.224 36.5651 149.032 36.5375 148.842C36.4933 148.484 36.3765 148.14 36.1947 147.832C36.0129 147.523 35.7701 147.257 35.4822 147.052C35.1943 146.846 34.8676 146.705 34.5233 146.637C34.1791 146.57 33.8249 146.578 33.4837 146.66C31.4447 147.224 30.1467 150.908 30.0523 152.847C30.0523 152.959 30.1183 154.208 30.1797 154.995C30.0759 154.538 29.9815 154.091 29.8682 153.625C29.6558 152.696 29.3962 151.773 29.1602 150.782L28.7401 149.348C28.6079 148.862 28.4097 148.376 28.2681 147.89C27.8669 146.757 27.4043 145.625 26.9135 144.488C27.7017 144.293 30.4959 143.56 31.6335 142.67C32.771 141.781 33.9321 140.347 33.9227 138.811C33.9324 138.451 33.8682 138.092 33.7344 137.758C33.6005 137.425 33.3999 137.124 33.1457 136.875C32.8915 136.627 32.5893 136.436 32.2588 136.316C31.9283 136.196 31.5769 136.148 31.2275 136.177C29.1271 136.415 27.3052 139.856 26.9229 141.757C26.9229 141.873 26.7766 143.268 26.7247 144.041C26.4226 143.36 26.1252 142.685 25.8043 142.014C24.8603 140.07 23.8549 138.126 22.859 136.182C22.5522 135.584 22.2548 134.991 21.9527 134.398C22.2359 134.33 25.5777 133.533 26.8332 132.542C27.9471 131.657 29.1319 130.214 29.1224 128.678C29.1321 128.317 29.068 127.959 28.9341 127.625C28.8003 127.291 28.5997 126.991 28.3455 126.742C28.0912 126.494 27.7891 126.303 27.4586 126.183C27.1281 126.063 26.7767 126.015 26.4273 126.044C24.3269 126.282 22.505 129.723 22.1227 131.623C22.0943 131.769 21.9197 133.776 21.9008 134.287C21.24 132.979 20.5934 131.667 20.0128 130.345C19.211 128.568 18.5236 126.738 17.9549 124.868C18.0871 124.839 21.5751 124.022 22.8637 123.002C23.9776 122.122 25.1623 120.679 25.1529 119.143C25.1627 118.782 25.0984 118.422 24.9643 118.088C24.8301 117.755 24.6291 117.453 24.3744 117.205C24.1196 116.956 23.8168 116.766 23.4858 116.646C23.1547 116.526 22.8028 116.479 22.4531 116.509C20.3574 116.742 18.5355 120.188 18.1531 122.088C18.1531 122.214 17.9927 123.745 17.9455 124.474H17.8275C17.3005 122.577 16.9403 120.635 16.7513 118.671C16.6333 117.593 16.5814 116.553 16.5483 115.542C17.2139 115.459 20.2488 115.056 21.5043 114.259C22.7599 113.462 24.0437 112.208 24.1947 110.682C24.2419 110.324 24.2155 109.961 24.1173 109.615C24.0191 109.268 23.8512 108.947 23.6246 108.672C23.398 108.397 23.1178 108.175 22.8021 108.018C22.4864 107.862 22.1424 107.776 21.7923 107.766C19.6824 107.766 17.5065 110.978 16.9259 112.825C16.8929 112.927 16.6805 113.982 16.5389 114.769C16.5389 114.312 16.5389 113.841 16.5389 113.403C16.5389 111.761 16.6427 110.254 16.7466 108.922C16.8079 108.164 16.8787 107.464 16.9543 106.847C17.5631 106.415 20.0034 104.636 20.7303 103.367C21.4571 102.099 22.066 100.344 21.5185 98.9205C21.4009 98.58 21.215 98.2689 20.973 98.0073C20.7309 97.7457 20.4381 97.5394 20.1136 97.4019C19.7891 97.2644 19.4401 97.1987 19.0894 97.2091C18.7386 97.2196 18.3939 97.3059 18.0776 97.4625C16.1896 98.4636 15.7176 102.322 16.0197 104.266C16.048 104.432 16.756 106.973 16.7891 106.949L16.8221 106.925C16.7419 107.537 16.6616 108.193 16.5861 108.913C16.4587 110.249 16.3218 111.756 16.284 113.403C16.2273 115.186 16.2698 116.971 16.4115 118.749C16.5535 120.735 16.8694 122.703 17.3555 124.63C17.3555 124.654 17.3555 124.674 17.3555 124.698C17.0251 124.158 16.048 122.691 15.9395 122.584C14.7075 121.126 11.4885 119.031 9.54385 119.877C9.22461 120.027 8.93964 120.244 8.70751 120.515C8.47539 120.786 8.30132 121.104 8.19667 121.449C8.09201 121.794 8.05911 122.158 8.10012 122.516C8.14112 122.875 8.25511 123.221 8.43465 123.531C9.15209 124.878 10.8749 125.544 12.2673 125.753C13.8391 125.986 17.1431 124.999 17.4074 124.921C17.9506 126.869 18.6208 128.777 19.4134 130.632C19.8854 131.716 20.3574 132.795 20.8624 133.869C20.5603 133.417 20.2866 133.008 20.2441 132.96C19.0122 131.502 15.7884 129.402 13.8485 130.248C13.5375 130.399 13.2601 130.615 13.0338 130.882C12.8075 131.148 12.6372 131.46 12.5335 131.798C12.4298 132.136 12.395 132.492 12.4312 132.844C12.4674 133.196 12.5739 133.537 12.744 133.844C13.4615 135.191 15.1795 135.856 16.5719 136.065C17.9643 136.274 20.8199 135.492 21.5704 135.273L22.1604 136.508C23.1044 138.452 24.0815 140.425 24.9924 142.369C25.3039 143.059 25.5871 143.744 25.8751 144.43C25.606 144.026 25.3747 143.691 25.337 143.642C24.1051 142.184 20.8813 140.085 18.9414 140.935C18.6221 141.085 18.3372 141.303 18.105 141.573C17.8729 141.844 17.6988 142.163 17.5942 142.507C17.4895 142.852 17.4566 143.216 17.4976 143.575C17.5386 143.934 17.6526 144.279 17.8322 144.59C18.5496 145.931 20.2677 146.597 21.6601 146.806C23.0525 147.015 25.6343 146.32 26.5264 146.058C26.7955 146.767 27.0739 147.482 27.3052 148.186C27.4563 148.672 27.6309 149.124 27.7536 149.615C27.8763 150.106 28.0132 150.587 28.1454 151.073C28.3625 152.001 28.5891 152.959 28.7779 153.872C28.9147 154.504 29.0327 155.107 29.1555 155.719C28.8487 155.034 28.2115 153.702 28.1643 153.595C27.1589 151.953 24.2844 149.387 22.2359 149.921C21.8987 150.02 21.5854 150.191 21.3166 150.423C21.0479 150.655 20.8295 150.943 20.6759 151.268C20.5223 151.592 20.4368 151.946 20.425 152.307C20.4132 152.668 20.4754 153.028 20.6075 153.362C21.1173 154.82 22.7174 155.729 24.0626 156.152C25.5494 156.638 28.8298 156.191 29.2546 156.152C29.4481 157.163 29.6322 158.149 29.7879 159.068C30.0617 160.652 30.2599 162.11 30.4582 163.408H31.8223C31.6051 162.047 31.3503 160.492 31.0199 158.835C30.8216 157.809 30.5951 156.716 30.3496 155.593C31.3374 155.188 32.3005 154.723 33.2335 154.198C34.3144 155.403 37.0851 156.813 37.4438 156.993C37.0662 157.965 36.6886 158.869 36.3204 159.734C35.754 161.08 35.2112 162.305 34.7062 163.408H36.1647C36.5847 162.436 37.0237 161.376 37.4721 160.234C37.8591 159.262 38.2556 158.227 38.6521 157.153C39.0486 157.24 42.2959 157.921 43.8111 157.566C45.1846 157.25 46.846 156.448 47.4596 155.049C47.6157 154.725 47.7037 154.372 47.7179 154.011C47.7321 153.65 47.6722 153.29 47.5421 152.955C47.412 152.62 47.2147 152.316 46.963 152.065C46.7112 151.814 46.4108 151.62 46.0814 151.496C44.0801 150.806 41.0263 153.143 39.9076 154.704C39.8415 154.796 39.2327 155.88 38.8598 156.57C39.0203 156.128 39.1807 155.705 39.3318 155.248C39.6527 154.354 39.9454 153.45 40.2758 152.478C40.4127 151.992 40.5543 151.506 40.6911 151.02C40.828 150.534 40.9413 150.019 41.0687 149.513C41.3425 148.337 41.5407 147.132 41.7579 145.912C42.5178 146.199 45.2412 147.175 46.6525 147.073C48.0638 146.971 49.8196 146.442 50.6315 145.154C50.8334 144.858 50.9725 144.522 51.0397 144.168C51.1069 143.813 51.1006 143.448 51.0213 143.096C50.942 142.744 50.7915 142.414 50.5795 142.126C50.3675 141.838 50.0989 141.6 49.7913 141.426C47.9033 140.43 44.5521 142.267 43.2163 143.632C43.1361 143.72 42.2723 144.813 41.8287 145.421C41.9372 144.687 42.0552 143.963 42.1449 143.21C42.4045 141.057 42.6169 138.865 42.8104 136.683C42.8718 136.012 42.9426 135.346 43.0087 134.68C43.2824 134.787 46.492 136.017 48.0732 135.9C49.4892 135.803 51.2403 135.268 52.0522 133.985C52.2542 133.69 52.3934 133.353 52.4606 132.998C52.5278 132.644 52.5216 132.278 52.4423 131.926C52.363 131.574 52.2125 131.242 52.0005 130.954C51.7885 130.666 51.5198 130.427 51.212 130.253C49.324 129.257 45.9728 131.094 44.6371 132.464C44.5379 132.566 43.3155 134.141 43.0228 134.559C43.1739 133.101 43.3343 131.643 43.5562 130.185C43.84 128.247 44.2451 126.329 44.7692 124.445C44.8967 124.494 48.2431 125.796 49.8621 125.68C51.2781 125.578 53.0292 125.043 53.8411 123.736C54.043 123.44 54.1821 123.104 54.2493 122.75C54.3165 122.395 54.3102 122.03 54.2309 121.678C54.1516 121.326 54.0011 120.996 53.7891 120.708C53.5771 120.42 53.3085 120.182 53.0009 120.008C51.1129 119.012 47.7617 120.844 46.4259 122.214C46.341 122.307 45.4064 123.502 44.9769 124.086L44.8683 124.027C45.4478 122.147 46.1887 120.324 47.082 118.579C47.554 117.607 48.0732 116.713 48.5924 115.853C49.1919 116.159 51.9436 117.539 53.4115 117.597C54.8795 117.656 56.6259 117.325 57.5699 116.139C57.8016 115.869 57.9754 115.551 58.0799 115.206C58.1843 114.861 58.2172 114.498 58.1762 114.139C58.1352 113.781 58.0214 113.435 57.8421 113.125C57.6628 112.815 57.4221 112.547 57.1356 112.339C55.3751 111.139 51.8398 112.582 50.3624 113.797C50.2822 113.865 49.5411 114.623 49.0078 115.187C49.2485 114.803 49.4798 114.4 49.7205 114.035C50.6031 112.665 51.4952 111.469 52.2929 110.414C52.7649 109.821 53.1755 109.292 53.5815 108.801C54.3225 108.801 57.3055 108.694 58.613 108.062C59.9204 107.43 61.3459 106.293 61.6527 104.796C61.7328 104.444 61.7398 104.078 61.6732 103.722C61.6065 103.367 61.4678 103.03 61.2659 102.734C61.0641 102.437 60.8037 102.188 60.5019 102.003C60.2001 101.817 59.8636 101.699 59.5145 101.657Z" fill="#C2C2C2"/>
</g>
<g id="freepik--Device--inject-13">
<path id="Vector_8" d="M31.2752 93.5404H208.275C209.585 93.5404 210.84 94.076 211.766 95.0293C212.692 95.9827 213.212 97.2757 213.212 98.624V218.423H26.3428V98.6191C26.344 97.2725 26.8641 95.9815 27.7888 95.0293C28.7136 94.0772 29.9674 93.5417 31.2752 93.5404Z" fill="white" stroke="#263238" stroke-linecap="round" stroke-linejoin="round"/>
<path id="Vector_9" d="M205.618 103.294H33.9229V203.201H205.618V103.294Z" stroke="#263238" stroke-linecap="round" stroke-linejoin="round"/>
<path id="Vector_10" d="M184.406 212.411H55.9888V218.924H184.406V212.411Z" fill="#263238" stroke="#263238" stroke-linecap="round" stroke-linejoin="round"/>
<path id="Vector_11" d="M184.406 215.546H55.9888V218.924H184.406V215.546Z" fill="white" stroke="#263238" stroke-linecap="round" stroke-linejoin="round"/>
<path id="Vector_12" d="M11.229 222.782C11.229 222.782 13.3388 225.441 19.6684 227.608H220.74C220.74 227.608 225.427 226.403 227.537 223.025L11.229 222.782Z" fill="#263238" stroke="#263238" stroke-linecap="round" stroke-linejoin="round"/>
<path id="Vector_13" d="M227.084 218.029H11.6963C11.2036 218.029 10.8042 218.441 10.8042 218.948V222.185C10.8042 222.692 11.2036 223.103 11.6963 223.103H227.084C227.577 223.103 227.976 222.692 227.976 222.185V218.948C227.976 218.441 227.577 218.029 227.084 218.029Z" fill="white" stroke="#263238" stroke-linecap="round" stroke-linejoin="round"/>
<path id="Vector_14" d="M121.37 97.3166C121.371 96.9819 121.275 96.6544 121.096 96.3757C120.916 96.0969 120.659 95.8794 120.359 95.7506C120.059 95.6219 119.729 95.5877 119.41 95.6524C119.091 95.7171 118.798 95.8778 118.568 96.1141C118.338 96.3505 118.181 96.6518 118.117 96.98C118.053 97.3082 118.085 97.6485 118.21 97.9579C118.334 98.2672 118.544 98.5316 118.814 98.7177C119.085 98.9037 119.402 99.003 119.728 99.003C120.162 99.003 120.579 98.8255 120.887 98.5094C121.195 98.1933 121.369 97.7643 121.37 97.3166Z" fill="white" stroke="#263238" stroke-linecap="round" stroke-linejoin="round"/>
<path id="Vector_15" d="M4.72021 227.608H234.584" stroke="#263238" stroke-linecap="round" stroke-linejoin="round"/>
</g>
<g id="freepik--Sign--inject-13">
<path id="Vector_16" d="M134.624 122.044C135.195 121.457 135.618 120.734 135.854 119.939C136.09 119.144 136.133 118.302 135.978 117.486L132.887 120.664C132.71 120.842 132.473 120.942 132.226 120.942C131.979 120.942 131.742 120.842 131.565 120.664L128.997 118.02C128.824 117.839 128.728 117.594 128.728 117.34C128.728 117.085 128.824 116.841 128.997 116.659L132.084 113.476C131.221 113.305 130.329 113.375 129.501 113.679C128.672 113.982 127.938 114.508 127.373 115.202C126.808 115.896 126.434 116.733 126.289 117.625C126.144 118.518 126.233 119.435 126.548 120.28L118.571 128.304L117.802 127.512L119.057 126.219C119.116 126.153 119.149 126.066 119.149 125.976C119.149 125.886 119.116 125.799 119.057 125.733L118.085 124.737C118.021 124.674 117.937 124.639 117.849 124.639C117.761 124.639 117.676 124.674 117.613 124.737L117.141 125.223L116.088 124.144L116.494 123.726C116.576 123.636 116.622 123.517 116.622 123.393C116.622 123.269 116.576 123.15 116.494 123.06L107.79 114.098C107.583 113.885 107.337 113.715 107.066 113.6C106.795 113.484 106.505 113.425 106.212 113.425C105.918 113.425 105.628 113.484 105.357 113.6C105.086 113.715 104.84 113.885 104.633 114.098L103.745 115.012C103.538 115.225 103.374 115.479 103.261 115.758C103.149 116.037 103.091 116.336 103.091 116.638C103.091 116.939 103.149 117.238 103.261 117.517C103.374 117.796 103.538 118.05 103.745 118.263L112.449 127.225C112.537 127.31 112.652 127.357 112.772 127.357C112.893 127.357 113.008 127.31 113.096 127.225L113.497 126.807L114.549 127.891L114.077 128.377C114.016 128.442 113.982 128.529 113.982 128.62C113.982 128.711 114.016 128.798 114.077 128.863L115.021 129.864C115.086 129.925 115.17 129.959 115.257 129.959C115.345 129.959 115.429 129.925 115.493 129.864L116.749 128.571L117.504 129.349L110.896 135.993C110.075 135.667 109.184 135.574 108.317 135.723C107.449 135.871 106.635 136.257 105.961 136.838C105.287 137.42 104.776 138.177 104.482 139.031C104.188 139.885 104.121 140.804 104.288 141.693L107.38 138.515C107.556 138.337 107.793 138.237 108.041 138.237C108.288 138.237 108.525 138.337 108.701 138.515L111.269 141.159C111.442 141.34 111.539 141.585 111.539 141.839C111.539 142.094 111.442 142.338 111.269 142.519L108.182 145.703C109.046 145.874 109.938 145.804 110.766 145.5C111.594 145.197 112.329 144.671 112.893 143.977C113.458 143.283 113.832 142.446 113.977 141.554C114.122 140.661 114.033 139.744 113.719 138.899L120.327 132.26L129.342 141.543C129.213 141.886 129.184 142.261 129.257 142.622C129.331 142.982 129.505 143.313 129.757 143.574L131.933 145.815L134.543 143.127L132.367 140.887C132.114 140.626 131.793 140.448 131.443 140.372C131.092 140.296 130.728 140.326 130.395 140.459L121.379 131.22L129.351 123.206C130.245 123.56 131.219 123.639 132.155 123.432C133.091 123.226 133.949 122.744 134.624 122.044Z" fill="#263238" stroke="#263238" stroke-linecap="round" stroke-linejoin="round"/>
<path id="Vector_17" d="M106.828 158.723C106.828 159.695 107.201 160.263 108.046 160.263C108.89 160.263 109.244 159.685 109.244 158.723V150.553H110.33V158.664C110.33 160.283 109.603 161.367 107.998 161.367C106.394 161.367 105.686 160.283 105.686 158.664V150.553H106.828V158.723Z" fill="#263238"/>
<path id="Vector_18" d="M112.492 161.245H111.453V150.553H112.921L115.324 158.28V150.553H116.348V161.245H115.168L112.492 152.604V161.245Z" fill="#263238"/>
<path id="Vector_19" d="M119.968 150.553C121.582 150.553 122.328 151.564 122.328 153.211V158.601C122.328 160.234 121.587 161.245 119.968 161.245H117.528V150.553H119.968ZM119.968 160.156C120.799 160.156 121.2 159.627 121.2 158.645V153.148C121.2 152.176 120.799 151.637 119.954 151.637H118.708V160.156H119.968Z" fill="#263238"/>
<path id="Vector_20" d="M127.1 155.287V156.356H124.561V160.156H127.676V161.245H123.404V150.553H127.676V151.632H124.561V155.282L127.1 155.287Z" fill="#263238"/>
<path id="Vector_21" d="M131.055 150.553C132.689 150.553 133.368 151.408 133.368 152.983V153.853C133.368 155.029 132.967 155.763 132.08 156.055C133.024 156.341 133.382 157.138 133.382 158.28V159.947C133.351 160.386 133.422 160.826 133.59 161.23H132.42C132.257 160.818 132.19 160.372 132.226 159.928V158.251C132.226 157.046 131.679 156.662 130.716 156.662H129.899V161.23H128.743V150.538L131.055 150.553ZM130.744 155.593C131.688 155.593 132.212 155.287 132.212 154.135V153.09C132.212 152.118 131.872 151.632 131.013 151.632H129.885V155.588L130.744 155.593Z" fill="#263238"/>
<path id="Vector_22" d="M92.172 174.96V175.932H91.0958V174.907C91.0958 173.935 90.7229 173.366 89.8781 173.366C89.0332 173.366 88.6603 173.944 88.6603 174.907V180.549C88.6603 181.521 89.0473 182.09 89.8781 182.09C90.7088 182.09 91.0958 181.511 91.0958 180.549V179.159H92.1909V180.486C92.1909 182.104 91.4498 183.173 89.8309 183.173C88.2119 183.173 87.5039 182.104 87.5039 180.486V174.96C87.5039 173.342 88.2449 172.272 89.8309 172.272C91.4168 172.272 92.172 173.342 92.172 174.96Z" fill="#263238"/>
<path id="Vector_23" d="M93.1348 174.96C93.1348 173.327 93.923 172.272 95.4948 172.272C97.0665 172.272 97.8831 173.327 97.8831 174.96V180.486C97.8831 182.104 97.0948 183.173 95.4948 183.173C93.8947 183.173 93.1348 182.104 93.1348 180.486V174.96ZM94.277 180.549C94.277 181.521 94.6782 182.09 95.5089 182.09C96.3396 182.09 96.7408 181.526 96.7408 180.549V174.897C96.7408 173.925 96.3538 173.356 95.5089 173.356C94.664 173.356 94.277 173.935 94.277 174.897V180.549Z" fill="#263238"/>
<path id="Vector_24" d="M100.017 183.066H98.9785V172.374H100.446L102.849 180.102V172.374H103.873V183.066H102.67L100.017 174.425V183.066Z" fill="#263238"/>
<path id="Vector_25" d="M109.551 174.96V175.247H108.451V174.897C108.451 173.925 108.097 173.371 107.267 173.371C106.436 173.371 106.082 173.935 106.082 174.882C106.082 177.278 109.565 177.507 109.565 180.515C109.565 182.133 108.81 183.188 107.205 183.188C105.601 183.188 104.878 182.133 104.878 180.515V179.907H105.964V180.578C105.964 181.55 106.346 182.104 107.177 182.104C108.008 182.104 108.395 181.54 108.395 180.578C108.395 178.197 104.926 177.968 104.926 174.96C104.926 173.308 105.667 172.287 107.224 172.287C108.782 172.287 109.551 173.327 109.551 174.96Z" fill="#263238"/>
<path id="Vector_26" d="M112.086 183.066V173.463H110.169V172.379H115.168V173.463H113.256V183.066H112.086Z" fill="#263238"/>
<path id="Vector_27" d="M118.269 172.379C119.897 172.379 120.582 173.235 120.582 174.809V175.684C120.582 176.855 120.18 177.589 119.293 177.881C120.237 178.172 120.596 178.965 120.596 180.112V181.764C120.561 182.203 120.632 182.644 120.803 183.047H119.633C119.467 182.637 119.401 182.192 119.439 181.749V180.068C119.439 178.863 118.892 178.483 117.924 178.483H117.112V183.047H115.956V172.355L118.269 172.379ZM117.971 177.419C118.892 177.419 119.439 177.113 119.439 175.961V174.936C119.439 173.964 119.1 173.478 118.236 173.478H117.112V177.434L117.971 177.419Z" fill="#263238"/>
<path id="Vector_28" d="M122.895 180.549C122.895 181.521 123.263 182.09 124.108 182.09C124.953 182.09 125.311 181.511 125.311 180.549V172.379H126.392V180.486C126.392 182.104 125.665 183.188 124.065 183.188C122.465 183.188 121.752 182.104 121.752 180.486V172.379H122.895V180.549Z" fill="#263238"/>
<path id="Vector_29" d="M132.118 174.96V175.932H131.018V174.907C131.018 173.935 130.65 173.366 129.805 173.366C128.96 173.366 128.587 173.944 128.587 174.907V180.549C128.587 181.521 128.974 182.09 129.805 182.09C130.636 182.09 131.018 181.511 131.018 180.549V179.159H132.118V180.486C132.118 182.104 131.377 183.173 129.758 183.173C128.139 183.173 127.431 182.104 127.431 180.486V174.96C127.431 173.342 128.172 172.272 129.758 172.272C131.344 172.272 132.118 173.342 132.118 174.96Z" fill="#263238"/>
<path id="Vector_30" d="M134.68 183.066V173.463H132.792V172.379H137.772V173.463H135.884V183.066H134.68Z" fill="#263238"/>
<path id="Vector_31" d="M139.712 172.379V183.071H138.556V172.379H139.712Z" fill="#263238"/>
<path id="Vector_32" d="M140.802 174.96C140.802 173.327 141.59 172.272 143.162 172.272C144.734 172.272 145.551 173.327 145.551 174.96V180.486C145.551 182.104 144.762 183.173 143.162 183.173C141.562 183.173 140.802 182.104 140.802 180.486V174.96ZM141.944 180.549C141.944 181.521 142.346 182.09 143.176 182.09C144.007 182.09 144.408 181.526 144.408 180.549V174.897C144.408 173.925 144.021 173.356 143.176 173.356C142.332 173.356 141.944 173.935 141.944 174.897V180.549Z" fill="#263238"/>
<path id="Vector_33" d="M147.684 183.066H146.646V172.374H148.113L150.516 180.102V172.374H151.54V183.066H150.337L147.684 174.425V183.066Z" fill="#263238"/>
<path id="Vector_34" d="M156.345 164.083H81.0518V168.705H156.345V164.083Z" fill="#92E3A9"/>
<path id="Vector_35" d="M110.5 164.083H105.487L102.915 168.7H107.927L110.5 164.083Z" fill="#263238"/>
<path id="Vector_36" d="M156.345 168.7V164.53L154.023 168.7H156.345Z" fill="#263238"/>
<path id="Vector_37" d="M120.719 164.083H115.706L113.138 168.7H118.151L120.719 164.083Z" fill="#263238"/>
<path id="Vector_38" d="M100.276 164.083H95.2638L92.6914 168.7H97.7088L100.276 164.083Z" fill="#263238"/>
<path id="Vector_39" d="M82.4727 168.7H87.4853L90.0577 164.083H85.0403L82.4727 168.7Z" fill="#263238"/>
<path id="Vector_40" d="M151.385 164.083H146.372L143.804 168.7H148.817L151.385 164.083Z" fill="#263238"/>
<path id="Vector_41" d="M130.942 164.083H125.929L123.357 168.7H128.374L130.942 164.083Z" fill="#263238"/>
<path id="Vector_42" d="M141.166 164.083H136.148L133.581 168.7H138.593L141.166 164.083Z" fill="#263238"/>
</g>
<g id="freepik--Cone--inject-13">
<path id="Vector_43" d="M46.8413 173.866L33.9463 224.59H62.7053L49.8102 173.866C49.7318 173.522 49.5425 173.214 49.273 172.994C49.0035 172.774 48.6697 172.654 48.3258 172.654C47.9818 172.654 47.648 172.774 47.3785 172.994C47.109 173.214 46.9197 173.522 46.8413 173.866Z" fill="#92E3A9" stroke="#263238" stroke-linecap="round" stroke-linejoin="round"/>
<path id="Vector_44" d="M33.9463 224.59H57.3764L45.6613 178.503L33.9463 224.59Z" fill="#263238" stroke="#263238" stroke-linecap="round" stroke-linejoin="round"/>
<path id="Vector_45" d="M65.6081 223.477H29.7361C28.6934 223.477 27.8481 224.348 27.8481 225.421V225.669C27.8481 226.743 28.6934 227.613 29.7361 227.613H65.6081C66.6509 227.613 67.4961 226.743 67.4961 225.669V225.421C67.4961 224.348 66.6509 223.477 65.6081 223.477Z" fill="#92E3A9" stroke="#263238" stroke-linecap="round" stroke-linejoin="round"/>
<path id="Vector_46" d="M53.3314 223.477H29.7361C28.6934 223.477 27.8481 224.348 27.8481 225.421V225.669C27.8481 226.743 28.6934 227.613 29.7361 227.613H53.3314C54.3741 227.613 55.2194 226.743 55.2194 225.669V225.421C55.2194 224.348 54.3741 223.477 53.3314 223.477Z" fill="#263238" stroke="#263238" stroke-linecap="round" stroke-linejoin="round"/>
<path id="Vector_47" d="M39.0913 204.358H57.5607L55.3281 195.571H41.3239L39.0913 204.358Z" fill="white" stroke="#263238" stroke-linecap="round" stroke-linejoin="round"/>
<path id="Vector_48" d="M39.0913 204.358H52.2365L50.0039 195.571H41.3239L39.0913 204.358Z" fill="#BABABA" stroke="#263238" stroke-linecap="round" stroke-linejoin="round"/>
</g>
<g id="freepik--Lamp--inject-13">
<path id="Vector_49" d="M122.76 67.4922C124.376 65.8277 124.376 63.1291 122.76 61.4646C121.143 59.8 118.522 59.8 116.906 61.4645C115.289 63.129 115.289 65.8277 116.906 67.4922C118.522 69.1567 121.143 69.1567 122.76 67.4922Z" fill="white" stroke="#263238" stroke-linecap="round" stroke-linejoin="round"/>
<path id="Vector_50" d="M119.949 30.0542V10.1428" stroke="#263238" stroke-width="2" stroke-linecap="round" stroke-linejoin="round"/>
<path id="Vector_51" d="M119.949 43.2054V30.0542" stroke="#808080" stroke-width="2" stroke-miterlimit="10"/>
<path id="Vector_52" d="M113.535 43.2054L100.758 65.9988H138.877L126.095 43.2054H113.535Z" fill="#92E3A9" stroke="#263238" stroke-width="0.972732" stroke-miterlimit="10"/>
<path id="Vector_53" d="M114.819 43.2054L104.647 65.9988H134.987L124.816 43.2054H114.819Z" fill="#263238" stroke="#263238" stroke-linecap="round" stroke-linejoin="round"/>
</g>
<g id="freepik--Shade--inject-13">
<path id="Vector_54" d="M84.8136 93.5404H31.2747C29.9665 93.5404 28.712 94.0755 27.787 95.028C26.8619 95.9804 26.3423 97.2722 26.3423 98.6191V194.886L84.8136 93.5404Z" fill="#808080" stroke="#263238" stroke-miterlimit="10"/>
<path id="Vector_55" d="M154.722 93.5404H208.261C209.569 93.5404 210.823 94.0755 211.748 95.028C212.673 95.9804 213.193 97.2722 213.193 98.6191V195.182L154.722 93.5404Z" fill="#808080" stroke="#263238" stroke-miterlimit="10"/>
<path id="Vector_56" d="M84.8136 93.5404L26.3423 194.901" stroke="#263238" stroke-linecap="round" stroke-linejoin="round"/>
<path id="Vector_57" d="M154.722 93.5404L213.193 195.182" stroke="#263238" stroke-linecap="round" stroke-linejoin="round"/>
<path id="Vector_58" d="M33.9224 181.915V103.294H78.97" stroke="#263238" stroke-linecap="round" stroke-linejoin="round"/>
<path id="Vector_59" d="M160.438 103.294H205.613V182.313" stroke="#263238" stroke-linecap="round" stroke-linejoin="round"/>
<g id="Vector_60">
<path d="M154.721 93.5404L138.876 65.9988H100.758L84.8135 93.5404" fill="white" fill-opacity="0.3"/>
<path d="M154.721 93.5404L138.876 65.9988H100.758L84.8135 93.5404" stroke="#263238" stroke-miterlimit="10"/>
</g>
</g>
</g>
</svg>
